<svg width="18" height="18" viewBox="0 0 18 18" fill="none" xmlns="http://www.w3.org/2000/svg">
<g clip-path="url(#clip0_641_5746)">
<path d="M9 15.75C12.7279 15.75 15.75 12.7279 15.75 9C15.75 5.27208 12.7279 2.25 9 2.25C5.27208 2.25 2.25 5.27208 2.25 9C2.25 12.7279 5.27208 15.75 9 15.75Z" stroke="#2D4A2B" stroke-width="1.5"/>
<path d="M9 2.25C7.80653 2.25 6.66193 2.96116 5.81802 4.22703C4.97411 5.4929 4.5 7.20979 4.5 9C4.5 10.7902 4.97411 12.5071 5.81802 13.773C6.66193 15.0388 7.80653 15.75 9 15.75M2.25 9C2.25 7.80653 2.96116 6.66193 4.22703 5.81802C5.4929 4.97411 7.20979 4.5 9 4.5C10.7902 4.5 12.5071 4.97411 13.773 5.81802C15.0388 6.66193 15.75 7.80653 15.75 9" stroke="#2D4A2B" stroke-width="1.5"/>
</g>
<defs>
<clipPath id="clip0_641_5746">
<rect width="18" height="18" fill="white"/>
</clipPath>
</defs>
</svg>
