<svg width="18" height="18" viewBox="0 0 18 18" fill="none" xmlns="http://www.w3.org/2000/svg">
<g clip-path="url(#clip0_641_5659)">
<path d="M6 8.25C7.24264 8.25 8.25 7.24264 8.25 6C8.25 4.75736 7.24264 3.75 6 3.75C4.75736 3.75 3.75 4.75736 3.75 6C3.75 7.24264 4.75736 8.25 6 8.25Z" stroke="black" stroke-width="1.5"/>
<path d="M12.75 6.75C13.5784 6.75 14.25 6.07843 14.25 5.25C14.25 4.42157 13.5784 3.75 12.75 3.75C11.9216 3.75 11.25 4.42157 11.25 5.25C11.25 6.07843 11.9216 6.75 12.75 6.75Z" stroke="black" stroke-width="1.5"/>
<path d="M2.25 15C2.25 12.75 3.75 10.5 6 10.5C8.25 10.5 9.75 12.75 9.75 15C9.75 13.5 11.25 12 12.75 12C14.25 12 15.75 13.5 15.75 15" stroke="black" stroke-width="1.5"/>
</g>
<defs>
<clipPath id="clip0_641_5659">
<rect width="18" height="18" fill="white"/>
</clipPath>
</defs>
</svg>
