<svg width="19" height="19" viewBox="0 0 19 19" fill="none" xmlns="http://www.w3.org/2000/svg">
<path d="M17.4074 13.2669V15.7669C17.4084 15.999 17.3608 16.2287 17.2678 16.4414C17.1749 16.654 17.0385 16.8449 16.8675 17.0018C16.6965 17.1587 16.4946 17.2781 16.2747 17.3525C16.0549 17.4269 15.8219 17.4545 15.5907 17.4336C13.0264 17.1549 10.5632 16.2787 8.39908 14.8752C6.3856 13.5958 4.67853 11.8887 3.39908 9.87524C1.99073 7.70125 1.11428 5.22607 0.840748 2.65024C0.819924 2.4198 0.847311 2.18754 0.921165 1.96826C0.99502 1.74898 1.11372 1.54748 1.26972 1.37659C1.42572 1.2057 1.61559 1.06917 1.82724 0.975679C2.0389 0.882189 2.2677 0.833795 2.49908 0.833577H4.99908C5.4035 0.829597 5.79557 0.972809 6.10222 1.23652C6.40886 1.50023 6.60915 1.86645 6.66575 2.26691C6.77127 3.06697 6.96696 3.85252 7.24908 4.60858C7.3612 4.90685 7.38547 5.23101 7.319 5.54264C7.25254 5.85428 7.09813 6.14034 6.87408 6.36691L5.81575 7.42524C7.00204 9.51153 8.72946 11.2389 10.8157 12.4252L11.8741 11.3669C12.1007 11.1429 12.3867 10.9885 12.6983 10.922C13.01 10.8555 13.3341 10.8798 13.6324 10.9919C14.3885 11.274 15.174 11.4697 15.9741 11.5752C16.3789 11.6324 16.7486 11.8362 17.0129 12.1482C17.2771 12.4601 17.4176 12.8582 17.4074 13.2669Z" stroke="#F9F6F0" stroke-width="1.66667" stroke-linecap="round" stroke-linejoin="round"/>
</svg>
