<svg width="18" height="18" viewBox="0 0 18 18" fill="none" xmlns="http://www.w3.org/2000/svg">
<path d="M9 15.75C12.7279 15.75 15.75 12.7279 15.75 9C15.75 5.27208 12.7279 2.25 9 2.25C5.27208 2.25 2.25 5.27208 2.25 9C2.25 12.7279 5.27208 15.75 9 15.75Z" stroke="#2D4A2B" stroke-width="1.5"/>
<path d="M6.75 8.25C7.16421 8.25 7.5 7.91421 7.5 7.5C7.5 7.08579 7.16421 6.75 6.75 6.75C6.33579 6.75 6 7.08579 6 7.5C6 7.91421 6.33579 8.25 6.75 8.25Z" stroke="#2D4A2B" stroke-width="1.5"/>
<path d="M11.25 9C11.6642 9 12 8.66421 12 8.25C12 7.83579 11.6642 7.5 11.25 7.5C10.8358 7.5 10.5 7.83579 10.5 8.25C10.5 8.66421 10.8358 9 11.25 9Z" stroke="#2D4A2B" stroke-width="1.5"/>
<path d="M8.25 12C8.66421 12 9 11.6642 9 11.25C9 10.8358 8.66421 10.5 8.25 10.5C7.83579 10.5 7.5 10.8358 7.5 11.25C7.5 11.6642 7.83579 12 8.25 12Z" stroke="#2D4A2B" stroke-width="1.5"/>
</svg>
